<?xml version="1.0" encoding="UTF-8"?>
<!-- Generated by GPT-5.2, slightly modified with Inkscape. -->
<!-- TODO: Replace with a proper icon. -->
<svg xmlns="http://www.w3.org/2000/svg" width="512" height="512" viewBox="0 0 512 512">
   <defs>
      <clipPath id="badgeClip">
         <circle cx="256" cy="256" r="220" />
      </clipPath>
   </defs>
   <circle cx="256" cy="256" r="220" fill="#00000000" stroke="#111111" stroke-width="42" />
   <g clip-path="url(#badgeClip)">
      <g transform="matrix(1.0590376,0,0,0.55015536,-13.106339,165.5034)">
         <path d="m 70,360 c 70,-25 150,-30 250,-18 60,8 100,8 130,-2 v 52 c -40,16 -90,22 -150,16 -90,-10 -160,-6 -230,12 z" fill="#7a5a3a" />
         <path d="m 95,372 c 105,-24 215,-22 325,0" fill="none" stroke="#3b2718" stroke-width="10" stroke-linecap="round" />
      </g>
      <g transform="translate(-18.944499,-57.830574)">
         <path d="m 256.92697,378.52775 c 4,22 14,34 26,40" fill="none" stroke="#2a1a10" stroke-width="8" stroke-linecap="round" />
         <path d="m 218.92697,382.52775 c 0,20 8,32 20,40" fill="none" stroke="#2a1a10" stroke-width="8" stroke-linecap="round" />
         <path d="m 358.88126,307.39045 c 54.91532,-7.82307 85.6679,-18.25382 98.84758,-26.94611 8.78645,-6.08462 -10.98306,-7.82307 -37.34242,-2.6077 -26.35935,5.21538 -52.71871,13.03845 -72.48822,22.59997 -8.78645,4.34614 -6.58984,9.56152 10.98306,6.95384 z" fill="#2a2f36" style="stroke-width:0.690898" />
         <path d="m 155,332 c -5,-40 11,-80 43,-100 36,-22 88,-18 124,12 34,28 44,72 18,106 -30,38 -88,54 -134,42 -30,-8 -48,-30 -51,-60 z" fill="#f2c84b" stroke="#111111" stroke-width="6" stroke-linejoin="round" />
         <path d="m 184,300 c 10,-30 30,-52 58,-62 36,-14 70,-2 92,24 -28,-12 -62,-10 -90,4 -24,12 -44,26 -60,34 z" fill="#6b7f3a" opacity="0.95" />
         <path d="m 210,316 c 26,-40 74,-52 108,-34 26,14 28,48 8,68 -26,24 -70,24 -98,0 -16,-14 -26,-20 -18,-34 z" fill="#3a4656" stroke="#111111" stroke-width="5" stroke-linejoin="round" />
         <path d="m 236,344 c 32,18 62,12 84,-10" fill="none" stroke="#f5f5f5" stroke-width="8" stroke-linecap="round" />
         <path d="m 152,252 c -14,-26 0,-54 30,-66 32,-12 64,4 74,30 10,26 -8,56 -42,62 -30,6 -50,-6 -62,-26 z" fill="#111111" />
         <ellipse cx="210" cy="230" rx="26" ry="22" fill="#f2f2f2" />
         <circle cx="192.48686" cy="224.9854" r="6.5" fill="#000000" />
         <circle cx="190.48686" cy="222.9854" r="2.2" fill="#ffffff" />
         <path d="m 150,226 -38,10 38,12 z" fill="#2a2a2a" />
      </g>
   </g>
</svg>
